<svg xmlns="http://www.w3.org/2000/svg" width="179.079" height="90.094" viewBox="0 0 179.079 90.094"><path fill="#C0FFFD" d="M53.706 11.351C34.844 13.543 13.79 20.699 9.061 40.312 2.687 66.755 33.081 82.7 53.831 86.828c32.705 6.506 98.21 6.849 112.148-33.36 14.985-43.221-73.125-69.875-112.273-42.117z"/><g fill="#FFF"><path d="M3.232 53v-3.25l-.4-6.75-.25-3.4c-.1-1.75-.15-2.75-.2-3 0-.15 0-.45-.05-1s-.15-1.15-.2-1.8c-.15-1.3-.2-3.2 0-4.65.15-1 .5-2.05 1.5-2.5 2.601-1.05 5.101.9 7.151 3.55 3.4 4.35 4.65 8.4 5.3 12.45.75 4.15.5 8.751-.85 12.551-1.35 3.851-4.5 7.301-8.951 9.151-.65.25-1.15.1-1.6-.351-.4.15-1.15.101-1.6-.55-.25-.3-.35-.65-.3-1.05.25-1.801.4-4.201.45-6.001.05-.85.05-2 0-3.4zm2.25-13.451l.25 3.75c.05 1.051.35 5.65.35 7.4 0 .9 0 2.05.05 3.5.05 2.9-.1 5.051-.3 7.2 4.2-2 6.801-5.75 7.5-10.101.7-4.35.1-9.1-1.55-13.7-.65-1.8-1.75-3.65-3.3-5.601-.85-1.1-1.6-1.9-2.3-2.35-.45-.25-.8-.4-1.1-.4-.05.1-.05.2-.1.35-.15 1.15-.05 2.85.05 4.1l.15 1.7.1 1c0 .102.05 1.152.2 3.152zM32.032 40.299l.2.4c.05.149.05.299.1.449.05.25.05.551.1.95l.15 2.95v1.7c.2 1.95.2 1.95.25 4.8 0 2.851.05 5.101.3 6.751.1.75.2 1.3.3 1.6h.05c1 .551 1.25.601 1.4 1.4s-.4 1.55-1.2 1.7c-.4.05-.75 0-1.1-.25-.05-.05-.05-.05-.1-.05l-.15-.101c-.05-.05-.15-.1-.25-.149-1-.601-1.3-1.25-1.55-2.101l-.3.601c-1.35 2.399-3.55 3.3-5.95 1.5-2.8-2-3.75-9.101-2.9-15.102.5-3.399 1.45-5.95 2.85-7.6 1.8-2.15 4.15-2.7 7.101-1.3.649.352.949 1.202.699 1.852zm-2.35 6.651l-.1-.7c-.25-1.5-.35-2.65-.4-3.4 0-.05 0-.2-.05-.45-.05-.65-.15-1.15.05-1.699-1.05-.301-2 0-2.75.899-2.05 2.55-3 9.001-2.15 14.051.35 2.45.95 3.95 1.7 4.5.8.601 1.1.45 1.7-.55 1.45-2.651 1.95-8.302 2-12.651zM47.582 37.599v-.8c0-.45-.05-1.4-.1-2.75-.15-2.75-.1-4.6.1-6.55.15-.8.85-1.4 1.65-1.3.75.1 1.3.85 1.25 1.6-.2 1.8-.25 3.45-.1 6.05.05 1.3.1 2.3.1 2.95.15 9.75.3 18.051.55 24.801 0 .801-.6 1.5-1.4 1.5-.8 0-1.45-.55-1.5-1.35-1.15 1.4-2.85 1.9-5 .9-1.55-.7-2.6-1.65-3.2-2.851-.45-1-.75-3.2-.9-5.801-.25-6 .4-12.8 2.6-15.75 1.649-2.149 3.9-2.099 5.95-.649zm-1.851 2.25c-.8-.55-1.2-.55-1.8.2-1.55 2.05-2.25 8.2-2 13.801.05 1.25.15 2.3.25 3.15.25 1.6.35 2.2 2.15 3.05.45.2.85.25 1.1.2.15-.05.35-.15.5-.4.4-.55.7-1.55.95-3.05.95-5.2.7-13.401-1.1-16.851.001-.05.001-.05-.05-.1zM63.731 37.599v-.8c0-.45-.05-1.4-.1-2.75-.15-2.75-.1-4.6.1-6.55.15-.8.85-1.4 1.65-1.3.75.1 1.3.85 1.25 1.6-.2 1.8-.25 3.45-.1 6.05.05 1.3.1 2.3.1 2.95.15 9.75.3 18.051.55 24.801 0 .801-.6 1.5-1.4 1.5-.8 0-1.45-.55-1.5-1.35-1.15 1.4-2.85 1.9-5 .9-1.55-.7-2.6-1.65-3.2-2.851-.45-1-.75-3.2-.9-5.801-.25-6 .4-12.8 2.6-15.75 1.65-2.149 3.901-2.099 5.95-.649zm-1.85 2.25c-.8-.55-1.2-.55-1.8.2-1.55 2.05-2.25 8.2-2 13.801.05 1.25.15 2.3.25 3.15.25 1.6.35 2.2 2.15 3.05.45.2.85.25 1.1.2.15-.05.35-.15.5-.4.4-.55.7-1.55.95-3.05.95-5.2.7-13.401-1.1-16.851.001-.05.001-.05-.05-.1zM78.082 61.85l-.05-.2c-.35-.949-.6-2.1-1.15-4.7-1.15-5.15-2.8-11.35-4.85-18.5-.2-.75.2-1.6 1-1.8.75-.2 1.6.2 1.8 1 1.75 6.05 3.149 11.35 4.2 15.85l.45-3.7c.15-1.05.2-2.649.25-4.699.05-2.301.1-3.951.25-5.001l.1-.95c.05-.4.15-.7.3-.95.8-1.15 2.3-1.05 2.851.1.15.25.25.6.3 1.25.05.949.1 2.8.05 4.801-.05 2.199-.35 5.8-.95 10.75-.05.1-.05.399-.1.85-.1 1-.25 2.2-.4 3.2-.15.95-.3 1.75-.45 2.351-.2.8-.45 1.3-.85 1.65-.6 3.7-1.4 6.95-2.45 9.8-.25.751-1.1 1.101-1.85.851s-1.1-1.101-.85-1.851c1.048-2.851 1.848-6.251 2.399-10.102zM92.781 33.399l.05-.15c-.05.05-.15.1-.25.15-2.25 1.2-3.55-.7-3.3-3.45.2-2.4 1.6-4 4.25-2.65 1.399.75 2.2 1.9 2.399 3.25.15 1.35 0 2.55-.399 3.75-.75 2.4-2.4 4.8-4.001 5.8a1.41 1.41 0 0 1-1.95-.5c-.45-.7-.3-1.55.45-2 .851-.55 2.151-2.35 2.751-4.2zm-.6-3.4l.101-.1h-.052c0 .05 0 .05-.049.1zM101.279 55.8v-1.15c0-.8.601-1.5 1.4-1.5s1.5.6 1.5 1.4v1.35c0 1.05.05 1.5.15 2.3.05.4.1.751.2 1.051.55 1.85 2.35 2.1 3.2.35 1-2 .649-6.75-.5-7.9-.301-.3-.95-.65-1.95-1-2.851-1-4.351-2.601-4.15-7.551.149-2.55.2-4.45 1.55-5.85 1.45-1.4 3.5-1.55 4.9-.6a5.266 5.266 0 0 1 2.601 3.7c.05.45.05 1.2 0 2.25-.05.25-.05.45-.05.7-.051.25-.051.5-.051.7-.05.25-.05.4-.05.45-.05.8-.75 1.399-1.55 1.351a1.457 1.457 0 0 1-1.351-1.551c0-.05 0-.2.05-.45 0-.2 0-.45.051-.7 0-.25 0-.449.05-.65.05-1.75.2-2.549-1.15-3.299-1-.6-1.7.15-1.95 1.7-.149.75-.5 4.75.45 6.101.25.35.75.7 1.601 1 2.95 1.05 4.55 2.2 4.9 6.65.199 2.65-.051 4.75-.801 6.25-.95 1.95-2.75 3.001-4.6 2.751-1.851-.2-3.351-1.551-4.001-3.501-.25-.85-.399-2.1-.399-2.899-.05-.403-.05-.903-.05-1.453zM143.729 27.198c.149 1.5.199 3.25.199 5.25-.05.8-.1 3.8-.1 5.05 0 2.2 0 4.75-.05 7.701 1.65-1.5 2.6-3.701 2.9-6.651.05-.8.8-1.35 1.6-1.3.8.05 1.351.8 1.3 1.6-.3 2.95-1.149 5.3-2.6 7.15 3.35 4.4 4.25 9.051 4.25 15.4a1.45 1.45 0 0 1-2.9 0c0-5.75-.8-9.7-3.45-13.351-.35.25-.75.5-1.149.75-.101 6.751-.15 11.501-.15 14.251a1.45 1.45 0 0 1-2.9 0c0-2.85.05-7.101.15-12.801.05-5.649.1-9.9.1-12.75 0-1.25.05-4.25.101-5.101 0-1.95-.051-3.55-.2-4.9-.05-.8.5-1.55 1.3-1.601.799-.047 1.549.503 1.599 1.303zM159.829 34.149l-.5-.15c-1.351.15-2.25-.85-2.2-2.1-.05-.25 0-.5.15-.75.05-.25.149-.45.3-.65.95-1.75 2.45-2.3 3.6-1.9 1.2.4 1.9 1.65 1.7 3.05-.2 1.35-1.25 2.75-3.05 2.5zm1.4 4c.149 5.65.199 13.751.199 24.302a1.45 1.45 0 0 1-2.899 0c0-10.551-.051-18.651-.2-24.202 0-.8.6-1.5 1.4-1.5.8 0 1.5.6 1.5 1.4zM175.629 37.599v-.8c0-.45-.05-1.4-.1-2.75-.15-2.75-.101-4.6.1-6.55.15-.8.85-1.4 1.65-1.3.75.1 1.3.85 1.25 1.6-.2 1.8-.25 3.45-.101 6.05.051 1.3.101 2.3.101 2.95.149 9.75.3 18.051.55 24.801 0 .801-.6 1.5-1.4 1.5-.8 0-1.45-.55-1.5-1.35-1.149 1.4-2.85 1.9-5 .9-1.55-.7-2.601-1.65-3.2-2.851-.45-1-.75-3.2-.9-5.801-.25-6 .4-12.8 2.601-15.75 1.649-2.149 3.899-2.099 5.949-.649zm-1.85 2.25c-.801-.55-1.2-.55-1.801.2-1.55 2.05-2.25 8.2-2 13.801.05 1.25.15 2.3.25 3.15.25 1.6.351 2.2 2.15 3.05.45.2.85.25 1.1.2.15-.05.351-.15.5-.4.4-.55.7-1.55.95-3.05.95-5.2.7-13.401-1.1-16.851.001-.05.001-.05-.049-.1z"/></g><g fill="#222"><path d="M1.232 51v-3.25L.832 41l-.25-3.4c-.1-1.75-.15-2.75-.2-3 0-.15 0-.45-.05-1s-.15-1.15-.2-1.8c-.15-1.3-.2-3.2 0-4.65.15-1 .5-2.05 1.5-2.5 2.601-1.05 5.101.9 7.151 3.55 3.4 4.35 4.65 8.4 5.3 12.45.75 4.15.5 8.751-.85 12.551-1.35 3.851-4.5 7.301-8.951 9.151-.65.25-1.15.1-1.6-.351-.4.15-1.15.101-1.6-.55-.25-.3-.35-.65-.3-1.05.25-1.801.4-4.201.45-6.001.05-.85.05-2 0-3.4zm2.25-13.451l.25 3.75c.05 1.051.35 5.65.35 7.4 0 .9 0 2.05.05 3.5.05 2.9-.1 5.051-.3 7.2 4.2-2 6.801-5.75 7.5-10.101.7-4.35.1-9.1-1.55-13.7-.65-1.8-1.75-3.65-3.3-5.601-.85-1.1-1.6-1.9-2.3-2.35-.45-.25-.8-.4-1.1-.4-.05.1-.05.2-.1.35-.15 1.15-.05 2.85.05 4.1l.15 1.7.1 1c0 .102.05 1.152.2 3.152zM30.032 38.299l.2.4c.05.15.05.3.1.45.05.25.05.55.1.95l.15 2.95v1.7c.2 1.95.2 1.95.25 4.8 0 2.851.05 5.101.3 6.751.1.75.2 1.3.3 1.6h.05c1 .551 1.25.601 1.4 1.4s-.4 1.55-1.2 1.7c-.4.05-.75 0-1.1-.25-.05-.05-.05-.05-.1-.05l-.15-.101c-.05-.05-.15-.1-.25-.149-1-.601-1.3-1.25-1.55-2.101l-.3.601c-1.35 2.399-3.55 3.3-5.95 1.5-2.8-2-3.75-9.101-2.9-15.101.5-3.4 1.45-5.951 2.85-7.601 1.8-2.15 4.15-2.7 7.101-1.3.649.351.949 1.201.699 1.851zm-2.35 6.651l-.1-.7c-.25-1.5-.35-2.65-.4-3.4 0-.05 0-.2-.05-.45-.05-.65-.15-1.15.05-1.7-1.05-.3-2 0-2.75.9-2.05 2.55-3 9.001-2.15 14.051.35 2.45.95 3.95 1.7 4.5.8.601 1.1.45 1.7-.55 1.45-2.651 1.95-8.302 2-12.651zM45.582 35.599v-.8c0-.45-.05-1.4-.1-2.75-.15-2.75-.1-4.6.1-6.55.15-.8.85-1.4 1.65-1.3.75.1 1.3.85 1.25 1.6-.2 1.8-.25 3.45-.1 6.05.05 1.3.1 2.3.1 2.95.15 9.75.3 18.051.55 24.801 0 .801-.6 1.5-1.4 1.5-.8 0-1.45-.55-1.5-1.35-1.15 1.4-2.85 1.9-5 .9-1.55-.7-2.6-1.65-3.2-2.851-.45-1-.75-3.2-.9-5.801-.25-6 .4-12.8 2.6-15.75 1.649-2.149 3.9-2.099 5.95-.649zm-1.851 2.25c-.8-.55-1.2-.55-1.8.2-1.55 2.05-2.25 8.2-2 13.801.05 1.25.15 2.3.25 3.15.25 1.6.35 2.2 2.15 3.05.45.2.85.25 1.1.2.15-.05.35-.15.5-.4.4-.55.7-1.55.95-3.05.95-5.2.7-13.401-1.1-16.851.001-.05.001-.05-.05-.1zM61.731 35.599v-.8c0-.45-.05-1.4-.1-2.75-.15-2.75-.1-4.6.1-6.55.15-.8.85-1.4 1.65-1.3.75.1 1.3.85 1.25 1.6-.2 1.8-.25 3.45-.1 6.05.05 1.3.1 2.3.1 2.95.15 9.75.3 18.051.55 24.801 0 .801-.6 1.5-1.4 1.5-.8 0-1.45-.55-1.5-1.35-1.15 1.4-2.85 1.9-5 .9-1.55-.7-2.6-1.65-3.2-2.851-.45-1-.75-3.2-.9-5.801-.25-6 .4-12.8 2.6-15.75 1.65-2.149 3.901-2.099 5.95-.649zm-1.85 2.25c-.8-.55-1.2-.55-1.8.2-1.55 2.05-2.25 8.2-2 13.801.05 1.25.15 2.3.25 3.15.25 1.6.35 2.2 2.15 3.05.45.2.85.25 1.1.2.15-.05.35-.15.5-.4.4-.55.7-1.55.95-3.05.95-5.2.7-13.401-1.1-16.851.001-.05.001-.05-.05-.1zM76.082 59.85l-.05-.2c-.35-.949-.6-2.1-1.15-4.7-1.15-5.15-2.8-11.35-4.85-18.5-.2-.75.2-1.6 1-1.8.75-.2 1.6.2 1.8 1 1.75 6.05 3.149 11.35 4.2 15.85l.45-3.7c.15-1.05.2-2.65.25-4.699.05-2.301.1-3.951.25-5.001l.1-.95c.05-.4.15-.7.3-.95.8-1.15 2.3-1.05 2.851.1.15.25.25.6.3 1.25.05.95.1 2.8.05 4.801-.05 2.199-.35 5.8-.95 10.75-.05.1-.05.399-.1.85-.1 1-.25 2.2-.4 3.2-.15.95-.3 1.751-.45 2.351-.2.8-.45 1.3-.85 1.65-.6 3.7-1.4 6.95-2.45 9.8-.25.751-1.1 1.101-1.85.851s-1.1-1.101-.85-1.851c1.048-2.851 1.848-6.251 2.399-10.102zM90.781 31.399l.05-.15c-.05.05-.15.1-.25.15-2.25 1.2-3.55-.7-3.3-3.45.2-2.4 1.6-4 4.25-2.65 1.399.75 2.2 1.9 2.399 3.25.15 1.35 0 2.55-.399 3.75-.75 2.4-2.4 4.8-4 5.8-.65.4-1.55.2-1.95-.5-.45-.7-.3-1.55.45-2 .85-.55 2.15-2.35 2.75-4.2zm-.6-3.4l.101-.1h-.052c0 .05 0 .05-.049.1zM99.279 53.8v-1.15c0-.8.601-1.5 1.4-1.5s1.5.6 1.5 1.4v1.35c0 1.05.05 1.5.15 2.3.05.4.1.751.2 1.051.55 1.85 2.35 2.1 3.2.35 1-2 .649-6.75-.5-7.9-.301-.3-.95-.65-1.95-1-2.851-1-4.351-2.601-4.15-7.551.149-2.55.2-4.45 1.55-5.85 1.45-1.4 3.5-1.55 4.9-.6a5.266 5.266 0 0 1 2.601 3.7c.05.45.05 1.2 0 2.25-.05.25-.05.45-.05.7-.051.25-.051.5-.051.7-.05.25-.05.4-.05.45-.05.8-.75 1.399-1.55 1.351a1.457 1.457 0 0 1-1.351-1.551c0-.05 0-.2.05-.45 0-.2 0-.45.051-.7 0-.25 0-.449.05-.65.05-1.75.2-2.549-1.15-3.299-1-.6-1.7.15-1.95 1.7-.149.75-.5 4.75.45 6.1.25.351.75.7 1.601 1 2.95 1.05 4.55 2.2 4.9 6.65.199 2.65-.051 4.75-.801 6.251-.95 1.949-2.75 3-4.6 2.75-1.851-.2-3.351-1.551-4.001-3.501-.25-.85-.399-2.1-.399-2.899-.05-.402-.05-.902-.05-1.452zM141.729 25.198c.149 1.5.199 3.25.199 5.25-.05.8-.1 3.8-.1 5.05 0 2.2 0 4.75-.05 7.701 1.65-1.5 2.6-3.701 2.9-6.651.05-.8.8-1.35 1.6-1.3.8.05 1.351.8 1.3 1.6-.3 2.95-1.149 5.3-2.6 7.15 3.35 4.4 4.25 9.051 4.25 15.4a1.45 1.45 0 0 1-2.9 0c0-5.75-.8-9.7-3.45-13.351-.35.25-.75.5-1.149.75-.101 6.751-.15 11.501-.15 14.251a1.45 1.45 0 0 1-2.9 0c0-2.85.05-7.101.15-12.801.05-5.649.1-9.9.1-12.75 0-1.25.05-4.25.101-5.101 0-1.95-.051-3.55-.2-4.9-.05-.8.5-1.55 1.3-1.601.799-.047 1.549.503 1.599 1.303zM157.829 32.149l-.5-.15c-1.351.15-2.25-.85-2.2-2.1-.05-.25 0-.5.15-.75.05-.25.149-.45.3-.65.95-1.75 2.45-2.3 3.6-1.9 1.2.4 1.9 1.65 1.7 3.05-.2 1.35-1.25 2.75-3.05 2.5zm1.4 4c.149 5.65.199 13.751.199 24.302a1.45 1.45 0 0 1-2.899 0c0-10.551-.051-18.651-.2-24.202 0-.8.6-1.5 1.4-1.5.8 0 1.5.6 1.5 1.4zM173.629 35.599v-.8c0-.45-.05-1.4-.1-2.75-.15-2.75-.101-4.6.1-6.55.15-.8.85-1.4 1.65-1.3.75.1 1.3.85 1.25 1.6-.2 1.8-.25 3.45-.101 6.05.051 1.3.101 2.3.101 2.95.149 9.75.3 18.051.55 24.801 0 .801-.6 1.5-1.4 1.5-.8 0-1.45-.55-1.5-1.35-1.149 1.4-2.85 1.9-5 .9-1.55-.7-2.601-1.65-3.2-2.851-.45-1-.75-3.2-.9-5.801-.25-6 .4-12.8 2.601-15.75 1.649-2.149 3.899-2.099 5.949-.649zm-1.85 2.25c-.801-.55-1.2-.55-1.801.2-1.55 2.05-2.25 8.2-2 13.801.05 1.25.15 2.3.25 3.15.25 1.6.351 2.2 2.15 3.05.45.2.85.25 1.1.2.15-.05.351-.15.5-.4.4-.55.7-1.55.95-3.05.95-5.2.7-13.401-1.1-16.851.001-.05.001-.05-.049-.1z"/></g></svg>